<?xml version="1.0" encoding="UTF-8"?>
<svg id="a" data-name="Layer 1" xmlns="http://www.w3.org/2000/svg" viewBox="0 0 1440.43 189">
  <defs>
    <style>
      .b {
        fill: #ff6f61;
      }

      .c {
        fill: #006d77;
      }
    </style>
  </defs>
  <path class="c" d="M316.38,188.74l-.09-23.7,50.93.33c4.74.03,7.96-3.37,8.02-7.97l.19-14.29c.02-1.61-1.81-5.04-3.26-4.57-3.5,2.75-7.21,6.98-11.09,8.72-11.83,5.31-34.03,3.07-44.73-7.56-7.35-7.3-11.42-17.68-12.07-28.34-.99-16.2-.28-31.79-.44-47.99l-.2-19.3,27.37-.26.33,62.5c.03,6.08,3.6,12.02,7.13,15.22,4.64,4.21,11.28,5.16,17.51,3.94,11.42-2.23,19.13-13.42,19.12-25.11l-.07-56.31,27.36-.03-.09,116.28c0,7.1-1.73,14.34-5.86,19.78s-11.59,8.82-18.63,8.8l-61.43-.13Z"/>
  <path class="c" d="M454.88,135.68l-.33,53.18-27.08.13-.12-144.52,25.89-.48,1.98,13.08c16.51-19.7,44.58-19.11,62.56-5.29,19.52,15,21.51,48.49,13.43,70.06-9.26,24.73-29.8,31.12-54.26,27.25-8.79-1.66-13.87-5.91-22.07-13.43ZM504.05,113.71c4.58-9.1,4.53-20.18,2.33-29.42-3.02-12.67-14.09-19.37-26.58-18.35-7.79.64-14.13,3.12-19.05,9.75-8.41,11.32-9.17,28.62-.95,40.22,5.13,7.24,12.75,10.27,21.07,10.24,9.16-.03,18.64-3.44,23.18-12.45Z"/>
  <path class="c" d="M53.4,125.4c12.8,2.12,24.82-2.37,30.63-14.29,2.64-5.4,3.32-11.4,3.4-18.13l28.96.95c-.51,9.85-1.31,19.07-5.27,27.85-11.19,24.78-32.42,28.91-57.27,28.43-27.98-.54-50.49-18.4-52.7-46.9-1.42-18.23-1.54-36.05-.18-54.3C2.64,26.32,19.27,7.9,41.21,3.25c13.05-2.77,25.81-2.7,38.43.58,24.5,6.36,36.29,27.67,35.97,52l-28.16,1.36-1.65-10.38c-2.05-12.89-12.58-19.66-24.99-20.34-15.42-.84-29.91,8.57-31.21,24.98-1.2,15.2-1.12,30.56-.37,45.73.73,14.74,9.89,25.87,24.16,28.23Z"/>
  <path class="c" d="M941.92,52.31c.35,26.96-21.37,43.66-46.04,43.81l-31.51.2-.21,51.79-28.17.06.06-144.45,55.75.19c8.5.03,16.04,1.08,24.11,3.69,21.23,8.36,25.73,23.37,26,44.71ZM910.98,60.1c4.25-8.45,3.25-17.91-2.43-24.42-8.38-9.61-31.86-5.82-44.24-6.38l.13,41.2c12.37-.05,22.68.33,34.55-.87,4.33-.44,9.99-5.54,12-9.52Z"/>
  <path class="c" d="M172.88,150.02c-16.91,1.02-34.5-1.7-41.3-19.17-4.71-12.1-3.85-26.46,6.02-35.78,7.1-6.71,17.13-9.74,26.88-9.88l29.79-.43c2.7-5.14,1.57-13.5-3.76-17.2-7.56-5.25-18.86-5.4-26.62-.4-3.85,2.48-5.57,6.95-8.14,10.98l-23.17-6.5c6.67-30.2,43.45-35.42,67.32-26.43,13.89,5.23,22.61,16.37,22.72,31.17l.3,43.33c.02,3.51,2.66,5.66,5.84,5.86l6.86.44.24,22.1-18.89-.23c-8.23-.1-14.01-4.31-18.33-12.46-6.83,9.02-15.02,13.96-25.76,14.6ZM195,105.03c-12.19,1-38.6-4.3-38.97,11.77-.12,5.09,3.03,9.73,8.78,11.07,4.54,1.06,10.45,1.15,15.26-.08,7.57-1.93,18.57-13.09,14.93-22.76Z"/>
  <path class="c" d="M1195.85,112l22.77,10.03c-2.22,6.41-6.18,11.83-10.77,15.99-10.31,9.36-21.77,11.91-34.83,12.46-30.9,1.3-54.42-21.34-53.92-52.29.24-14.57,2.62-28.79,12.6-39.88,10.43-11.59,23.66-17.09,39.14-17.17,23.61-.13,43.64,14.72,48.83,38.14,1.68,7.57,1.84,15.45,1.39,23.76l-74.05.09c-.86,6.22,1.75,10.42,5.35,14.77,7.17,8.65,19.22,11.02,29.99,7.24,6.08-2.13,9.81-6.37,13.49-13.15ZM1193.53,83.38c-1.57-11.58-10.49-18.04-20.62-18.6-11.23-2.55-26.49,9.2-25.66,18.7l46.29-.1Z"/>
  <path class="c" d="M725.76,148.82c-16.64,3.19-38.78,1.85-51.55-9.88-5.97-5.48-10.75-11.38-13.6-19.11-4.93-13.38-5.64-28-1.77-41.77,9.23-32.82,47.56-43.85,74.72-32.4,27.68,11.67,34.03,35.84,30.05,63.85-2.79,19.65-18.25,35.54-37.86,39.31ZM712.39,125.95c10.97-.59,19.43-6.63,22.79-16.65,2.57-7.66,2.42-16.43.5-24.32-2.98-12.26-13.47-19.68-25.82-19.38-15.15.37-25.93,11.65-26.35,26.76-.22,8.07.37,16.3,5.07,23.06,5.32,7.64,13.96,11.06,23.81,10.54Z"/>
  <path class="c" d="M1115.07,147.99l-33.03.25-10.26-14.74-13.88-20.47-24.45,35.26-31.73-.12,18.64-27.44,17.25-25.57-26.22-38.23c-2.84-4.14-5.14-7.91-7.72-12.77l31.48-.39,23.06,33.65,23.28-33.44,31.53-.1-16.57,25.14-17.93,26.02,8.57,12.97,27.99,39.96Z"/>
  <path class="c" d="M1380.71,125.7c-6.93,25.61-40.89,27.38-62.11,22.59-16.33-3.69-29.02-16.69-30.36-32.93l25.36-3.69c4.47,15.59,21.29,19.96,34.26,15.07,4.59-1.73,6.94-5.41,6.36-9.85-.51-3.85-3.71-7.08-8.24-8.11-11.4-2.6-22.91-4.27-33.87-7.77-12.53-4.01-19.9-14.88-19.75-27.6.09-7.7,1.98-14.63,7.64-20.09,14.52-13.99,41.28-15.34,59.45-6.45,9.82,4.8,17.28,13.15,18.36,24.61l-23.15,4.53c-2.08-3.03-4.51-7.71-7.81-9.62-7.34-4.25-16.41-4.85-23.75-.96-2.52,1.34-4.42,5.79-4.08,8.05.4,2.6,3.19,6.1,6.07,6.77l27.06,6.27c8.33,1.93,17.15,5.15,23.2,11.36,6.94,7.11,8,17.98,5.34,27.81Z"/>
  <path class="c" d="M633.55,139.5c-17.51,14.65-53.51,14.28-70.24,1.38-8.19-6.31-13.46-14.82-13.75-25.03l24.69-4.32c2.44,8.46,7.61,14.09,15.8,16.13,8.96,2.23,25.3,1.53,24.69-9.65-.25-4.62-3.06-8.05-7.83-9.08l-31.19-6.79c-8.76-1.91-16.6-7.81-20.33-16.05-3.55-7.85-3.64-17.61-.02-25.5,3.13-6.8,9.55-11.99,16.69-15.03,22.75-9.68,61.74-4.16,66.24,25.9l-23.39,4.88c-4.76-14.05-20.55-16.68-31.57-10.72-4.09,2.21-5.95,8.37-2.35,11.72,3.1,2.87,7.93,4.36,12.18,5.05,11.26,1.84,21.84,4.27,32.2,8.61,10.58,4.43,17.24,13.6,17.01,25.41-.16,8.14-2.04,17.4-8.85,23.09Z"/>
  <rect class="c" x="251.13" y="3.43" width="28.57" height="144.83"/>
  <rect class="c" x="1182.75" y="61.5" width="145.03" height="28.52" transform="translate(1179.27 1331.02) rotate(-89.99)"/>
  <rect class="c" x="921.29" y="81.97" width="104.17" height="28.52" transform="translate(876.9 1069.58) rotate(-89.99)"/>
  <circle class="b" cx="1419.16" cy="130.71" r="21.27"/>
  <path class="c" d="M981.74,33.24c-7.15,2.97-14.97,1.92-20.32-2.28-4.79-3.76-6.26-8.84-6.09-14.61.23-7.79,4.58-14.28,12.66-15.79,4.21-.79,9.98-.95,13.94.84,6.39,2.88,9.22,9.35,9.34,15.48s-2.9,13.61-9.53,16.36Z"/>
</svg>